<svg id="SvgjsSvg1001" width="288" height="288" xmlns="http://www.w3.org/2000/svg" version="1.1" xmlns:xlink="http://www.w3.org/1999/xlink" xmlns:svgjs="http://svgjs.com/svgjs"><defs id="SvgjsDefs1002"></defs><g id="SvgjsG1008"><svg xmlns="http://www.w3.org/2000/svg" viewBox="0 0 24 24" width="288" height="288"><path d="M5.755,20.283,4,8H20L18.245,20.283A2,2,0,0,1,16.265,22H7.735A2,2,0,0,1,5.755,20.283ZM21,4H16V3a1,1,0,0,0-1-1H9A1,1,0,0,0,8,3V4H3A1,1,0,0,0,3,6H21a1,1,0,0,0,0-2Z" fill="#d20d0d" class="color000 svgShape"></path></svg></g></svg>